# xmcd CD database file
#
# Track frame offsets:
#	150
#	19178
#	37211
#	52689
#	70383
#	86394
#	102620
#	118694
#	137512
#	155500
#
# Disc length: 2439 seconds
#
# Revision: 1
# Processed by: cddbd v1.4PL0 Copyright (c) Steve Scherf et al.
# Submitted via: Feurio! 1.66 - http://www.feurio.com
#
DISCID=8309850a
DTITLE=Ronnie Milsap - Keyed Up 
DYEAR=1983
DGENRE=Countryrock
TTITLE0=Stranger in my house
TTITLE1=Show her
TTITLE2=Don't your memory ever sleep at night
TTITLE3=Watch out for the other guy
TTITLE4=I'm just a redneck at heart
TTITLE5=Don't you know how much I love you
TTITLE6=Feelings change
TTITLE7=Like children I have known
TTITLE8=Is it over
TTITLE9=We're here to love
EXTD=(c)1983 RCA Records\r\nPL 14670/RCA LP 6077
EXTT0=
EXTT1=
EXTT2=
EXTT3=
EXTT4=
EXTT5=
EXTT6=
EXTT7=
EXTT8=
EXTT9=
PLAYORDER=
